<svg height="512pt" preserveAspectRatio="xMidYMid meet" viewBox="0 0 512 512" width="512pt" xmlns="http://www.w3.org/2000/svg"><g transform="matrix(.1 0 0 -.1 0 512)"><path d="m990 3395v-115h140 140v115 115h-140-140z"/><path d="m2362 2832 3-678 25-37c52-76 180-114 338-101l82 6v119 119h-61c-54 0-64 3-90 29l-29 29v316 316h90 90v115 114l-87 3-88 3-3 163-2 162h-135-135z"/><path d="m3830 2859c0-459 3-663 11-690 18-60 62-105 127-130 48-19 77-23 179-23 73 0 127 4 133 10 7 7 10 54 8 120l-3 109-45 3c-66 3-88 10-110 32-19 19-20 35-20 340v320h85 85v115 115h-85-85v165 165h-140-140z"/><path d="m1710 3239c-120-20-240-105-289-204-40-80-51-164-51-400 0-300 16-381 92-478 143-180 513-199 678-36 47 47 75 97 95 176 29 109 36 103-125 103h-140v-25c0-38-25-90-51-109-90-63-222-28-258 67-6 16-11 73-11 128v99h300 300v174c0 147-3 184-20 240-37 117-138 213-265 252-65 19-185 26-255 13zm189-237c49-26 71-73 71-149v-63h-160-160v58c0 110 58 172 159 172 35 0 69-7 90-18z"/><path d="m997 3183c-4-3-7-289-7-635v-629l-25-23c-25-23-65-36-111-36-24 0-24 0-24-126v-127l108 5c122 5 174 23 240 82 22 20 50 60 63 89l24 52 3 678 3 677h-134c-74 0-137-3-140-7z"/><path d="m2910 3065v-115l243-2 243-3-243-343-243-343v-115-114h415 415v115 115l-249 2-250 3 250 347 249 348v110 110h-415-415z"/><path d="m1370 1815v-85l1458 2 1457 3 1 83v82h-1458-1458z"/></g></svg>